<svg width="93" height="85" viewBox="0 0 93 85" fill="none" xmlns="http://www.w3.org/2000/svg">
<line x1="19" y1="9.5" x2="74" y2="9.5" stroke="black"/>
<line x1="83.5" y1="20" x2="83.5" y2="65" stroke="black"/>
<line x1="74.5057" y1="74.9025" x2="17.9975" y2="75.0975" stroke="black"/>
<path d="M18.5 10C18.5 15.2712 14.4467 19.5 9.5 19.5C4.55329 19.5 0.5 15.2712 0.5 10C0.5 4.72882 4.55329 0.5 9.5 0.5C14.4467 0.5 18.5 4.72882 18.5 10Z" stroke="black"/>
<path d="M18.5 75C18.5 80.2712 14.4467 84.5 9.5 84.5C4.55329 84.5 0.5 80.2712 0.5 75C0.5 69.7288 4.55329 65.5 9.5 65.5C14.4467 65.5 18.5 69.7288 18.5 75Z" stroke="black"/>
<path d="M92.5 10C92.5 15.2712 88.4467 19.5 83.5 19.5C78.5533 19.5 74.5 15.2712 74.5 10C74.5 4.72882 78.5533 0.5 83.5 0.5C88.4467 0.5 92.5 4.72882 92.5 10Z" stroke="black"/>
<path d="M92.5 75C92.5 80.2712 88.4467 84.5 83.5 84.5C78.5533 84.5 74.5 80.2712 74.5 75C74.5 69.7288 78.5533 65.5 83.5 65.5C88.4467 65.5 92.5 69.7288 92.5 75Z" stroke="black"/>
</svg>
