<svg width="143" height="120" viewBox="0 0 143 120" fill="none" xmlns="http://www.w3.org/2000/svg">
<g clip-path="url(#clip0_0_1)">
<line x1="26.5" y1="91" x2="26.5" y2="58" stroke="black"/>
<line x1="116.5" y1="91" x2="116.5" y2="58" stroke="black"/>
<line x1="33.7584" y1="94.9636" x2="108.758" y2="53.5623" stroke="black"/>
<line x1="33.2294" y1="55.5557" x2="109.347" y2="94.8637" stroke="black"/>
<line x1="35" y1="48.5" x2="107" y2="48.5" stroke="black"/>
<line x1="30.5725" y1="91.7407" x2="67.5725" y2="30.7407" stroke="black"/>
<line x1="112.31" y1="91.4155" x2="75.5714" y2="30.2575" stroke="black"/>
<line x1="79.1664" y1="26.7049" x2="109.461" y2="43.8738" stroke="black"/>
<line x1="63.3123" y1="25.4169" x2="34.276" y2="44.6372" stroke="black"/>
<line x1="108" y1="99.5" x2="36" y2="99.5" stroke="black"/>
<path d="M35.5 49C35.5 54.2712 31.4467 58.5 26.5 58.5C21.5533 58.5 17.5 54.2712 17.5 49C17.5 43.7288 21.5533 39.5 26.5 39.5C31.4467 39.5 35.5 43.7288 35.5 49Z" stroke="black"/>
<path d="M125.5 49C125.5 54.2712 121.447 58.5 116.5 58.5C111.553 58.5 107.5 54.2712 107.5 49C107.5 43.7288 111.553 39.5 116.5 39.5C121.447 39.5 125.5 43.7288 125.5 49Z" stroke="black"/>
<path d="M35.5 100C35.5 105.271 31.4467 109.5 26.5 109.5C21.5533 109.5 17.5 105.271 17.5 100C17.5 94.7288 21.5533 90.5 26.5 90.5C31.4467 90.5 35.5 94.7288 35.5 100Z" stroke="black"/>
<path d="M80.5 22C80.5 27.2712 76.4467 31.5 71.5 31.5C66.5533 31.5 62.5 27.2712 62.5 22C62.5 16.7288 66.5533 12.5 71.5 12.5C76.4467 12.5 80.5 16.7288 80.5 22Z" stroke="black"/>
<path d="M125.5 100C125.5 105.271 121.447 109.5 116.5 109.5C111.553 109.5 107.5 105.271 107.5 100C107.5 94.7288 111.553 90.5 116.5 90.5C121.447 90.5 125.5 94.7288 125.5 100Z" stroke="black"/>
<path d="M69.516 9L69.456 8.22L70.68 8.016V2.052L69.504 2.268L69.324 1.416L71.628 0.684L71.856 0.804V8.04L72.936 8.196L72.912 9H69.516Z" fill="black"/>
<path d="M124.516 39L124.456 38.22L125.68 38.016V32.052L124.504 32.268L124.324 31.416L126.628 30.684L126.856 30.804V38.04L127.936 38.196L127.912 39H124.516ZM128.437 39L128.401 38.844L132.349 30.696H133.465L133.453 30.876L129.517 39H128.437ZM134.327 39L134.183 38.172C134.359 37.972 134.599 37.724 134.903 37.428C135.215 37.124 135.543 36.792 135.887 36.432C136.231 36.064 136.559 35.684 136.871 35.292C137.183 34.892 137.439 34.492 137.639 34.092C137.839 33.692 137.939 33.308 137.939 32.94C137.939 32.628 137.871 32.384 137.735 32.208C137.607 32.032 137.443 31.908 137.243 31.836C137.043 31.756 136.843 31.716 136.643 31.716C136.427 31.716 136.247 31.736 136.103 31.776C135.959 31.816 135.847 31.856 135.767 31.896L135.215 33.036L134.015 32.388C134.319 31.876 134.703 31.468 135.167 31.164C135.631 30.86 136.175 30.708 136.799 30.708C137.231 30.708 137.627 30.796 137.987 30.972C138.347 31.148 138.631 31.404 138.839 31.74C139.055 32.068 139.163 32.472 139.163 32.952C139.163 33.344 139.059 33.756 138.851 34.188C138.651 34.62 138.383 35.056 138.047 35.496C137.711 35.928 137.339 36.356 136.931 36.78C136.531 37.204 136.127 37.612 135.719 38.004H138.311L138.755 36.696H139.511L139.259 39H134.327Z" fill="black"/>
<path d="M124.516 90L124.456 89.22L125.68 89.016V83.052L124.504 83.268L124.324 82.416L126.628 81.684L126.856 81.804V89.04L127.936 89.196L127.912 90H124.516ZM128.437 90L128.401 89.844L132.349 81.696H133.465L133.453 81.876L129.517 90H128.437ZM134.327 90L134.183 89.172C134.359 88.972 134.599 88.724 134.903 88.428C135.215 88.124 135.543 87.792 135.887 87.432C136.231 87.064 136.559 86.684 136.871 86.292C137.183 85.892 137.439 85.492 137.639 85.092C137.839 84.692 137.939 84.308 137.939 83.94C137.939 83.628 137.871 83.384 137.735 83.208C137.607 83.032 137.443 82.908 137.243 82.836C137.043 82.756 136.843 82.716 136.643 82.716C136.427 82.716 136.247 82.736 136.103 82.776C135.959 82.816 135.847 82.856 135.767 82.896L135.215 84.036L134.015 83.388C134.319 82.876 134.703 82.468 135.167 82.164C135.631 81.86 136.175 81.708 136.799 81.708C137.231 81.708 137.627 81.796 137.987 81.972C138.347 82.148 138.631 82.404 138.839 82.74C139.055 83.068 139.163 83.472 139.163 83.952C139.163 84.344 139.059 84.756 138.851 85.188C138.651 85.62 138.383 86.056 138.047 86.496C137.711 86.928 137.339 87.356 136.931 87.78C136.531 88.204 136.127 88.612 135.719 89.004H138.311L138.755 87.696H139.511L139.259 90H134.327Z" fill="black"/>
<path d="M3.516 90L3.456 89.22L4.68 89.016V83.052L3.504 83.268L3.324 82.416L5.628 81.684L5.856 81.804V89.04L6.936 89.196L6.912 90H3.516ZM7.43672 90L7.40072 89.844L11.3487 81.696H12.4647L12.4527 81.876L8.51672 90H7.43672ZM13.3266 90L13.1826 89.172C13.3586 88.972 13.5986 88.724 13.9026 88.428C14.2146 88.124 14.5426 87.792 14.8866 87.432C15.2306 87.064 15.5586 86.684 15.8706 86.292C16.1826 85.892 16.4386 85.492 16.6386 85.092C16.8386 84.692 16.9386 84.308 16.9386 83.94C16.9386 83.628 16.8706 83.384 16.7346 83.208C16.6066 83.032 16.4426 82.908 16.2426 82.836C16.0426 82.756 15.8426 82.716 15.6426 82.716C15.4266 82.716 15.2466 82.736 15.1026 82.776C14.9586 82.816 14.8466 82.856 14.7666 82.896L14.2146 84.036L13.0146 83.388C13.3186 82.876 13.7026 82.468 14.1666 82.164C14.6306 81.86 15.1746 81.708 15.7986 81.708C16.2306 81.708 16.6266 81.796 16.9866 81.972C17.3466 82.148 17.6306 82.404 17.8386 82.74C18.0546 83.068 18.1626 83.472 18.1626 83.952C18.1626 84.344 18.0586 84.756 17.8506 85.188C17.6506 85.62 17.3826 86.056 17.0466 86.496C16.7106 86.928 16.3386 87.356 15.9306 87.78C15.5306 88.204 15.1266 88.612 14.7186 89.004H17.3106L17.7546 87.696H18.5106L18.2586 90H13.3266Z" fill="black"/>
<path d="M3.516 39L3.456 38.22L4.68 38.016V32.052L3.504 32.268L3.324 31.416L5.628 30.684L5.856 30.804V38.04L6.936 38.196L6.912 39H3.516ZM7.43672 39L7.40072 38.844L11.3487 30.696H12.4647L12.4527 30.876L8.51672 39H7.43672ZM13.3266 39L13.1826 38.172C13.3586 37.972 13.5986 37.724 13.9026 37.428C14.2146 37.124 14.5426 36.792 14.8866 36.432C15.2306 36.064 15.5586 35.684 15.8706 35.292C16.1826 34.892 16.4386 34.492 16.6386 34.092C16.8386 33.692 16.9386 33.308 16.9386 32.94C16.9386 32.628 16.8706 32.384 16.7346 32.208C16.6066 32.032 16.4426 31.908 16.2426 31.836C16.0426 31.756 15.8426 31.716 15.6426 31.716C15.4266 31.716 15.2466 31.736 15.1026 31.776C14.9586 31.816 14.8466 31.856 14.7666 31.896L14.2146 33.036L13.0146 32.388C13.3186 31.876 13.7026 31.468 14.1666 31.164C14.6306 30.86 15.1746 30.708 15.7986 30.708C16.2306 30.708 16.6266 30.796 16.9866 30.972C17.3466 31.148 17.6306 31.404 17.8386 31.74C18.0546 32.068 18.1626 32.472 18.1626 32.952C18.1626 33.344 18.0586 33.756 17.8506 34.188C17.6506 34.62 17.3826 35.056 17.0466 35.496C16.7106 35.928 16.3386 36.356 15.9306 36.78C15.5306 37.204 15.1266 37.612 14.7186 38.004H17.3106L17.7546 36.696H18.5106L18.2586 39H13.3266Z" fill="black"/>
</g>
<defs>
<clipPath id="clip0_0_1">
<rect width="143" height="120" fill="white"/>
</clipPath>
</defs>
</svg>
