<svg width="346" height="95" viewBox="0 0 346 95" fill="none" xmlns="http://www.w3.org/2000/svg">
<line x1="34" y1="46.5" x2="89" y2="46.5" stroke="black"/>
<line x1="108" y1="46.5" x2="163" y2="46.5" stroke="black"/>
<line x1="182" y1="46.5" x2="237" y2="46.5" stroke="black"/>
<line x1="256" y1="46.5" x2="311" y2="46.5" stroke="black"/>
<path d="M107.5 47C107.5 52.2712 103.447 56.5 98.5 56.5C93.5533 56.5 89.5 52.2712 89.5 47C89.5 41.7288 93.5533 37.5 98.5 37.5C103.447 37.5 107.5 41.7288 107.5 47Z" stroke="black"/>
<path d="M329.5 47C329.5 52.2712 325.447 56.5 320.5 56.5C315.553 56.5 311.5 52.2712 311.5 47C311.5 41.7288 315.553 37.5 320.5 37.5C325.447 37.5 329.5 41.7288 329.5 47Z" stroke="black"/>
<path d="M33.5 47C33.5 52.2712 29.4467 56.5 24.5 56.5C19.5533 56.5 15.5 52.2712 15.5 47C15.5 41.7288 19.5533 37.5 24.5 37.5C29.4467 37.5 33.5 41.7288 33.5 47Z" stroke="black"/>
<path d="M181.5 47C181.5 52.2712 177.447 56.5 172.5 56.5C167.553 56.5 163.5 52.2712 163.5 47C163.5 41.7288 167.553 37.5 172.5 37.5C177.447 37.5 181.5 41.7288 181.5 47Z" stroke="black"/>
<path d="M255.5 47C255.5 52.2712 251.447 56.5 246.5 56.5C241.553 56.5 237.5 52.2712 237.5 47C237.5 41.7288 241.553 37.5 246.5 37.5C251.447 37.5 255.5 41.7288 255.5 47Z" stroke="black"/>
<path d="M165.516 72L165.456 71.22L166.68 71.016V65.052L165.504 65.268L165.324 64.416L167.628 63.684L167.856 63.804V71.04L168.936 71.196L168.912 72H165.516ZM169.437 72L169.401 71.844L173.349 63.696H174.465L174.453 63.876L170.517 72H169.437ZM176.318 71.988V71.172L178.094 70.992V69.672H174.866L174.458 68.772L177.998 63.708H179.258V68.652H180.242V69.672H179.258V71.004L180.194 71.172L180.218 71.988H176.318ZM175.634 68.652H178.094V65.136L175.634 68.652Z" fill="black"/>
<path d="M239.516 72L239.456 71.22L240.68 71.016V65.052L239.504 65.268L239.324 64.416L241.628 63.684L241.856 63.804V71.04L242.936 71.196L242.912 72H239.516ZM243.437 72L243.401 71.844L247.349 63.696H248.465L248.453 63.876L244.517 72H243.437ZM251.871 72.048C251.327 72.048 250.855 71.956 250.455 71.772C250.063 71.58 249.755 71.32 249.531 70.992C249.315 70.656 249.207 70.28 249.207 69.864C249.207 69.328 249.359 68.868 249.663 68.484C249.975 68.092 250.339 67.776 250.755 67.536C250.435 67.312 250.167 67.052 249.951 66.756C249.735 66.452 249.627 66.08 249.627 65.64C249.627 65.224 249.731 64.872 249.939 64.584C250.147 64.288 250.423 64.064 250.767 63.912C251.119 63.752 251.495 63.672 251.895 63.672C252.311 63.672 252.691 63.744 253.035 63.888C253.379 64.032 253.655 64.248 253.863 64.536C254.071 64.824 254.175 65.188 254.175 65.628C254.175 66.012 254.059 66.356 253.827 66.66C253.603 66.956 253.307 67.244 252.939 67.524C253.483 67.836 253.891 68.164 254.163 68.508C254.443 68.852 254.583 69.288 254.583 69.816C254.583 70.232 254.467 70.612 254.235 70.956C254.011 71.292 253.695 71.56 253.287 71.76C252.879 71.952 252.407 72.048 251.871 72.048ZM251.883 71.052C252.115 71.052 252.343 71.008 252.567 70.92C252.799 70.832 252.987 70.696 253.131 70.512C253.283 70.32 253.359 70.076 253.359 69.78C253.359 69.54 253.295 69.324 253.167 69.132C253.039 68.94 252.879 68.776 252.687 68.64C252.495 68.496 252.307 68.38 252.123 68.292C251.939 68.196 251.795 68.12 251.691 68.064C251.483 68.208 251.279 68.364 251.079 68.532C250.887 68.7 250.731 68.888 250.611 69.096C250.491 69.296 250.431 69.528 250.431 69.792C250.431 70.112 250.511 70.364 250.671 70.548C250.831 70.732 251.023 70.864 251.247 70.944C251.479 71.016 251.691 71.052 251.883 71.052ZM252.003 67.032C252.267 66.824 252.503 66.6 252.711 66.36C252.927 66.12 253.035 65.856 253.035 65.568C253.035 65.248 252.919 65 252.687 64.824C252.463 64.648 252.199 64.56 251.895 64.56C251.719 64.56 251.543 64.596 251.367 64.668C251.199 64.74 251.055 64.852 250.935 65.004C250.823 65.148 250.767 65.328 250.767 65.544C250.767 65.896 250.879 66.18 251.103 66.396C251.335 66.612 251.635 66.824 252.003 67.032Z" fill="black"/>
<path d="M310.516 72L310.456 71.22L311.68 71.016V65.052L310.504 65.268L310.324 64.416L312.628 63.684L312.856 63.804V71.04L313.936 71.196L313.912 72H310.516ZM314.437 72L314.401 71.844L318.349 63.696H319.465L319.453 63.876L315.517 72H314.437ZM320.243 72L320.183 71.22L321.407 71.016V65.052L320.231 65.268L320.051 64.416L322.355 63.684L322.583 63.804V71.04L323.663 71.196L323.639 72H320.243ZM327.415 72.048C326.855 72.048 326.379 71.928 325.987 71.688C325.603 71.44 325.291 71.116 325.051 70.716C324.819 70.308 324.651 69.864 324.547 69.384C324.443 68.896 324.391 68.412 324.391 67.932C324.391 67.42 324.459 66.916 324.595 66.42C324.731 65.916 324.935 65.46 325.207 65.052C325.479 64.644 325.819 64.316 326.227 64.068C326.635 63.82 327.107 63.696 327.643 63.696C328.123 63.696 328.523 63.768 328.843 63.912C329.171 64.056 329.427 64.216 329.611 64.392C329.803 64.568 329.935 64.7 330.007 64.788L328.891 65.664L328.279 64.824C328.215 64.792 328.123 64.764 328.003 64.74C327.891 64.708 327.759 64.692 327.607 64.692C327.199 64.692 326.851 64.84 326.563 65.136C326.275 65.432 326.051 65.812 325.891 66.276C325.731 66.74 325.643 67.224 325.627 67.728C325.835 67.456 326.111 67.236 326.455 67.068C326.799 66.9 327.171 66.816 327.571 66.816C328.011 66.816 328.423 66.916 328.807 67.116C329.191 67.316 329.499 67.604 329.731 67.98C329.963 68.356 330.079 68.816 330.079 69.36C330.079 69.88 329.971 70.344 329.755 70.752C329.539 71.152 329.231 71.468 328.831 71.7C328.431 71.932 327.959 72.048 327.415 72.048ZM327.415 71.052C327.751 71.052 328.023 70.972 328.231 70.812C328.447 70.652 328.603 70.448 328.699 70.2C328.795 69.944 328.843 69.676 328.843 69.396C328.843 68.916 328.699 68.536 328.411 68.256C328.131 67.968 327.783 67.824 327.367 67.824C326.951 67.824 326.591 67.976 326.287 68.28C325.983 68.576 325.827 68.98 325.819 69.492C325.915 69.924 326.095 70.292 326.359 70.596C326.631 70.9 326.983 71.052 327.415 71.052Z" fill="black"/>
<path d="M90.516 72L90.456 71.22L91.68 71.016V65.052L90.504 65.268L90.324 64.416L92.628 63.684L92.856 63.804V71.04L93.936 71.196L93.912 72H90.516ZM94.4367 72L94.4007 71.844L98.3487 63.696H99.4647L99.4527 63.876L95.5167 72H94.4367ZM100.327 72L100.183 71.172C100.359 70.972 100.599 70.724 100.903 70.428C101.215 70.124 101.543 69.792 101.887 69.432C102.231 69.064 102.559 68.684 102.871 68.292C103.183 67.892 103.439 67.492 103.639 67.092C103.839 66.692 103.939 66.308 103.939 65.94C103.939 65.628 103.871 65.384 103.735 65.208C103.607 65.032 103.443 64.908 103.243 64.836C103.043 64.756 102.843 64.716 102.643 64.716C102.427 64.716 102.247 64.736 102.103 64.776C101.959 64.816 101.847 64.856 101.767 64.896L101.215 66.036L100.015 65.388C100.319 64.876 100.703 64.468 101.167 64.164C101.631 63.86 102.175 63.708 102.799 63.708C103.231 63.708 103.627 63.796 103.987 63.972C104.347 64.148 104.631 64.404 104.839 64.74C105.055 65.068 105.163 65.472 105.163 65.952C105.163 66.344 105.059 66.756 104.851 67.188C104.651 67.62 104.383 68.056 104.047 68.496C103.711 68.928 103.339 69.356 102.931 69.78C102.531 70.204 102.127 70.612 101.719 71.004H104.311L104.755 69.696H105.511L105.259 72H100.327Z" fill="black"/>
<path d="M22.516 72L22.456 71.22L23.68 71.016V65.052L22.504 65.268L22.324 64.416L24.628 63.684L24.856 63.804V71.04L25.936 71.196L25.912 72H22.516Z" fill="black"/>
<path d="M315.516 31L315.456 30.22L316.68 30.016V24.052L315.504 24.268L315.324 23.416L317.628 22.684L317.856 22.804V30.04L318.936 30.196L318.912 31H315.516ZM322.689 31.048C322.129 31.048 321.653 30.928 321.261 30.688C320.877 30.44 320.565 30.116 320.325 29.716C320.093 29.308 319.925 28.864 319.821 28.384C319.717 27.896 319.665 27.412 319.665 26.932C319.665 26.42 319.733 25.916 319.869 25.42C320.005 24.916 320.209 24.46 320.481 24.052C320.753 23.644 321.093 23.316 321.501 23.068C321.909 22.82 322.381 22.696 322.917 22.696C323.397 22.696 323.797 22.768 324.117 22.912C324.445 23.056 324.701 23.216 324.885 23.392C325.077 23.568 325.209 23.7 325.281 23.788L324.165 24.664L323.553 23.824C323.489 23.792 323.397 23.764 323.277 23.74C323.165 23.708 323.033 23.692 322.881 23.692C322.473 23.692 322.125 23.84 321.837 24.136C321.549 24.432 321.325 24.812 321.165 25.276C321.005 25.74 320.917 26.224 320.901 26.728C321.109 26.456 321.385 26.236 321.729 26.068C322.073 25.9 322.445 25.816 322.845 25.816C323.285 25.816 323.697 25.916 324.081 26.116C324.465 26.316 324.773 26.604 325.005 26.98C325.237 27.356 325.353 27.816 325.353 28.36C325.353 28.88 325.245 29.344 325.029 29.752C324.813 30.152 324.505 30.468 324.105 30.7C323.705 30.932 323.233 31.048 322.689 31.048ZM322.689 30.052C323.025 30.052 323.297 29.972 323.505 29.812C323.721 29.652 323.877 29.448 323.973 29.2C324.069 28.944 324.117 28.676 324.117 28.396C324.117 27.916 323.973 27.536 323.685 27.256C323.405 26.968 323.057 26.824 322.641 26.824C322.225 26.824 321.865 26.976 321.561 27.28C321.257 27.576 321.101 27.98 321.093 28.492C321.189 28.924 321.369 29.292 321.633 29.596C321.905 29.9 322.257 30.052 322.689 30.052Z" fill="#FF0000"/>
<path d="M246.144 31.048C245.6 31.048 245.128 30.956 244.728 30.772C244.336 30.58 244.028 30.32 243.804 29.992C243.588 29.656 243.48 29.28 243.48 28.864C243.48 28.328 243.632 27.868 243.936 27.484C244.248 27.092 244.612 26.776 245.028 26.536C244.708 26.312 244.44 26.052 244.224 25.756C244.008 25.452 243.9 25.08 243.9 24.64C243.9 24.224 244.004 23.872 244.212 23.584C244.42 23.288 244.696 23.064 245.04 22.912C245.392 22.752 245.768 22.672 246.168 22.672C246.584 22.672 246.964 22.744 247.308 22.888C247.652 23.032 247.928 23.248 248.136 23.536C248.344 23.824 248.448 24.188 248.448 24.628C248.448 25.012 248.332 25.356 248.1 25.66C247.876 25.956 247.58 26.244 247.212 26.524C247.756 26.836 248.164 27.164 248.436 27.508C248.716 27.852 248.856 28.288 248.856 28.816C248.856 29.232 248.74 29.612 248.508 29.956C248.284 30.292 247.968 30.56 247.56 30.76C247.152 30.952 246.68 31.048 246.144 31.048ZM246.156 30.052C246.388 30.052 246.616 30.008 246.84 29.92C247.072 29.832 247.26 29.696 247.404 29.512C247.556 29.32 247.632 29.076 247.632 28.78C247.632 28.54 247.568 28.324 247.44 28.132C247.312 27.94 247.152 27.776 246.96 27.64C246.768 27.496 246.58 27.38 246.396 27.292C246.212 27.196 246.068 27.12 245.964 27.064C245.756 27.208 245.552 27.364 245.352 27.532C245.16 27.7 245.004 27.888 244.884 28.096C244.764 28.296 244.704 28.528 244.704 28.792C244.704 29.112 244.784 29.364 244.944 29.548C245.104 29.732 245.296 29.864 245.52 29.944C245.752 30.016 245.964 30.052 246.156 30.052ZM246.276 26.032C246.54 25.824 246.776 25.6 246.984 25.36C247.2 25.12 247.308 24.856 247.308 24.568C247.308 24.248 247.192 24 246.96 23.824C246.736 23.648 246.472 23.56 246.168 23.56C245.992 23.56 245.816 23.596 245.64 23.668C245.472 23.74 245.328 23.852 245.208 24.004C245.096 24.148 245.04 24.328 245.04 24.544C245.04 24.896 245.152 25.18 245.376 25.396C245.608 25.612 245.908 25.824 246.276 26.032Z" fill="#FF6B00"/>
<path d="M170.884 30.988V30.172L172.66 29.992V28.672H169.432L169.024 27.772L172.564 22.708H173.824V27.652H174.808V28.672H173.824V30.004L174.76 30.172L174.784 30.988H170.884ZM170.2 27.652H172.66V24.136L170.2 27.652Z" fill="#FFE600"/>
<path d="M95.6 31L95.456 30.172C95.632 29.972 95.872 29.724 96.176 29.428C96.488 29.124 96.816 28.792 97.16 28.432C97.504 28.064 97.832 27.684 98.144 27.292C98.456 26.892 98.712 26.492 98.912 26.092C99.112 25.692 99.212 25.308 99.212 24.94C99.212 24.628 99.144 24.384 99.008 24.208C98.88 24.032 98.716 23.908 98.516 23.836C98.316 23.756 98.116 23.716 97.916 23.716C97.7 23.716 97.52 23.736 97.376 23.776C97.232 23.816 97.12 23.856 97.04 23.896L96.488 25.036L95.288 24.388C95.592 23.876 95.976 23.468 96.44 23.164C96.904 22.86 97.448 22.708 98.072 22.708C98.504 22.708 98.9 22.796 99.26 22.972C99.62 23.148 99.904 23.404 100.112 23.74C100.328 24.068 100.436 24.472 100.436 24.952C100.436 25.344 100.332 25.756 100.124 26.188C99.924 26.62 99.656 27.056 99.32 27.496C98.984 27.928 98.612 28.356 98.204 28.78C97.804 29.204 97.4 29.612 96.992 30.004H99.584L100.028 28.696H100.784L100.532 31H95.6Z" fill="#ADFF00"/>
<path d="M22.516 31L22.456 30.22L23.68 30.016V24.052L22.504 24.268L22.324 23.416L24.628 22.684L24.856 22.804V30.04L25.936 30.196L25.912 31H22.516Z" fill="#00FF38"/>
</svg>
