<svg width="346" height="95" viewBox="0 0 346 95" fill="none" xmlns="http://www.w3.org/2000/svg">
<line x1="34" y1="46.5" x2="89" y2="46.5" stroke="black"/>
<line x1="108" y1="46.5" x2="163" y2="46.5" stroke="black"/>
<path d="M107.5 47C107.5 52.2712 103.447 56.5 98.5 56.5C93.5533 56.5 89.5 52.2712 89.5 47C89.5 41.7288 93.5533 37.5 98.5 37.5C103.447 37.5 107.5 41.7288 107.5 47Z" stroke="black"/>
<path d="M33.5 47C33.5 52.2712 29.4467 56.5 24.5 56.5C19.5533 56.5 15.5 52.2712 15.5 47C15.5 41.7288 19.5533 37.5 24.5 37.5C29.4467 37.5 33.5 41.7288 33.5 47Z" stroke="black"/>
<path d="M181.5 47C181.5 52.2712 177.447 56.5 172.5 56.5C167.553 56.5 163.5 52.2712 163.5 47C163.5 41.7288 167.553 37.5 172.5 37.5C177.447 37.5 181.5 41.7288 181.5 47Z" stroke="black"/>
</svg>
