<svg width="143" height="120" viewBox="0 0 143 120" fill="none" xmlns="http://www.w3.org/2000/svg">
<line x1="33.2294" y1="55.5557" x2="109.347" y2="94.8637" stroke="black"/>
<line x1="30.5725" y1="91.7407" x2="67.5725" y2="30.7407" stroke="black"/>
<line x1="112.31" y1="91.4155" x2="75.5714" y2="30.2575" stroke="black"/>
<line x1="108" y1="99.5" x2="36" y2="99.5" stroke="black"/>
<path d="M35.5 49C35.5 54.2712 31.4467 58.5 26.5 58.5C21.5533 58.5 17.5 54.2712 17.5 49C17.5 43.7288 21.5533 39.5 26.5 39.5C31.4467 39.5 35.5 43.7288 35.5 49Z" stroke="black"/>
<path d="M125.5 49C125.5 54.2712 121.447 58.5 116.5 58.5C111.553 58.5 107.5 54.2712 107.5 49C107.5 43.7288 111.553 39.5 116.5 39.5C121.447 39.5 125.5 43.7288 125.5 49Z" stroke="black"/>
<path d="M35.5 100C35.5 105.271 31.4467 109.5 26.5 109.5C21.5533 109.5 17.5 105.271 17.5 100C17.5 94.7288 21.5533 90.5 26.5 90.5C31.4467 90.5 35.5 94.7288 35.5 100Z" stroke="black"/>
<path d="M80.5 22C80.5 27.2712 76.4467 31.5 71.5 31.5C66.5533 31.5 62.5 27.2712 62.5 22C62.5 16.7288 66.5533 12.5 71.5 12.5C76.4467 12.5 80.5 16.7288 80.5 22Z" stroke="black"/>
<path d="M125.5 100C125.5 105.271 121.447 109.5 116.5 109.5C111.553 109.5 107.5 105.271 107.5 100C107.5 94.7288 111.553 90.5 116.5 90.5C121.447 90.5 125.5 94.7288 125.5 100Z" stroke="black"/>
</svg>
