<svg width="93" height="85" viewBox="0 0 93 85" fill="none" xmlns="http://www.w3.org/2000/svg">
<line x1="9.5" y1="65" x2="9.5" y2="19" stroke="black"/>
<line x1="19" y1="9.5" x2="74" y2="9.5" stroke="black"/>
<line x1="83.5" y1="20" x2="83.5" y2="65" stroke="black"/>
<line x1="74.5057" y1="74.9025" x2="17.9975" y2="75.0975" stroke="black"/>
<path d="M18.5 10C18.5 15.2712 14.4467 19.5 9.5 19.5C4.55329 19.5 0.5 15.2712 0.5 10C0.5 4.72882 4.55329 0.5 9.5 0.5C14.4467 0.5 18.5 4.72882 18.5 10Z" stroke="black"/>
<path d="M18.5 75C18.5 80.2712 14.4467 84.5 9.5 84.5C4.55329 84.5 0.5 80.2712 0.5 75C0.5 69.7288 4.55329 65.5 9.5 65.5C14.4467 65.5 18.5 69.7288 18.5 75Z" stroke="black"/>
<path d="M92.5 10C92.5 15.2712 88.4467 19.5 83.5 19.5C78.5533 19.5 74.5 15.2712 74.5 10C74.5 4.72882 78.5533 0.5 83.5 0.5C88.4467 0.5 92.5 4.72882 92.5 10Z" stroke="black"/>
<path d="M92.5 75C92.5 80.2712 88.4467 84.5 83.5 84.5C78.5533 84.5 74.5 80.2712 74.5 75C74.5 69.7288 78.5533 65.5 83.5 65.5C88.4467 65.5 92.5 69.7288 92.5 75Z" stroke="black"/>
<path d="M19.516 26L19.456 25.22L20.68 25.016V19.052L19.504 19.268L19.324 18.416L21.628 17.684L21.856 17.804V25.04L22.936 25.196L22.912 26H19.516Z" fill="black"/>
<path d="M59.516 26L59.456 25.22L60.68 25.016V19.052L59.504 19.268L59.324 18.416L61.628 17.684L61.856 17.804V25.04L62.936 25.196L62.912 26H59.516ZM63.4367 26L63.4007 25.844L67.3487 17.696H68.4647L68.4527 17.876L64.5167 26H63.4367ZM69.3266 26L69.1826 25.172C69.3586 24.972 69.5986 24.724 69.9026 24.428C70.2146 24.124 70.5426 23.792 70.8866 23.432C71.2306 23.064 71.5586 22.684 71.8706 22.292C72.1826 21.892 72.4386 21.492 72.6386 21.092C72.8386 20.692 72.9386 20.308 72.9386 19.94C72.9386 19.628 72.8706 19.384 72.7346 19.208C72.6066 19.032 72.4426 18.908 72.2426 18.836C72.0426 18.756 71.8426 18.716 71.6426 18.716C71.4266 18.716 71.2466 18.736 71.1026 18.776C70.9586 18.816 70.8466 18.856 70.7666 18.896L70.2146 20.036L69.0146 19.388C69.3186 18.876 69.7026 18.468 70.1666 18.164C70.6306 17.86 71.1746 17.708 71.7986 17.708C72.2306 17.708 72.6266 17.796 72.9866 17.972C73.3466 18.148 73.6306 18.404 73.8386 18.74C74.0546 19.068 74.1626 19.472 74.1626 19.952C74.1626 20.344 74.0586 20.756 73.8506 21.188C73.6506 21.62 73.3826 22.056 73.0466 22.496C72.7106 22.928 72.3386 23.356 71.9306 23.78C71.5306 24.204 71.1266 24.612 70.7186 25.004H73.3106L73.7546 23.696H74.5106L74.2586 26H69.3266Z" fill="black"/>
<path d="M17.516 65L17.456 64.22L18.68 64.016V58.052L17.504 58.268L17.324 57.416L19.628 56.684L19.856 56.804V64.04L20.936 64.196L20.912 65H17.516ZM21.4367 65L21.4007 64.844L25.3487 56.696H26.4647L26.4527 56.876L22.5167 65H21.4367ZM27.3266 65L27.1826 64.172C27.3586 63.972 27.5986 63.724 27.9026 63.428C28.2146 63.124 28.5426 62.792 28.8866 62.432C29.2306 62.064 29.5586 61.684 29.8706 61.292C30.1826 60.892 30.4386 60.492 30.6386 60.092C30.8386 59.692 30.9386 59.308 30.9386 58.94C30.9386 58.628 30.8706 58.384 30.7346 58.208C30.6066 58.032 30.4426 57.908 30.2426 57.836C30.0426 57.756 29.8426 57.716 29.6426 57.716C29.4266 57.716 29.2466 57.736 29.1026 57.776C28.9586 57.816 28.8466 57.856 28.7666 57.896L28.2146 59.036L27.0146 58.388C27.3186 57.876 27.7026 57.468 28.1666 57.164C28.6306 56.86 29.1746 56.708 29.7986 56.708C30.2306 56.708 30.6266 56.796 30.9866 56.972C31.3466 57.148 31.6306 57.404 31.8386 57.74C32.0546 58.068 32.1626 58.472 32.1626 58.952C32.1626 59.344 32.0586 59.756 31.8506 60.188C31.6506 60.62 31.3826 61.056 31.0466 61.496C30.7106 61.928 30.3386 62.356 29.9306 62.78C29.5306 63.204 29.1266 63.612 28.7186 64.004H31.3106L31.7546 62.696H32.5106L32.2586 65H27.3266Z" fill="black"/>
</svg>
